<svg xmlns="http://www.w3.org/2000/svg" viewBox="0 0 40 16">
  <path d="M0,8 C7,1 13,1 20,8 C27,15 33,15 40,8" fill="none" stroke="#c9a24b" stroke-width="0.9" stroke-opacity="0.9"/>
  <path d="M0,8 C7,15 13,15 20,8 C27,1 33,1 40,8" fill="none" stroke="#c9a24b" stroke-width="0.9" stroke-opacity="0.9"/>
  <path d="M-4,8 C3,3 9,3 16,8 C23,13 29,13 36,8" fill="none" stroke="#e8c877" stroke-width="0.5" stroke-opacity="0.55"/>
  <path d="M4,8 C11,3 17,3 24,8 C31,13 37,13 44,8" fill="none" stroke="#e8c877" stroke-width="0.5" stroke-opacity="0.55"/>
  <circle cx="0" cy="8" r="1.1" fill="#c9a24b"/>
  <circle cx="20" cy="8" r="1.1" fill="#c9a24b"/>
  <circle cx="40" cy="8" r="1.1" fill="#c9a24b"/>
</svg>
